<svg id="Capa_1" enable-background="new 0 0 511.975 511.975" height="512" viewBox="0 0 511.975 511.975" width="512" xmlns="http://www.w3.org/2000/svg"><g><path d="m16.132 417.827 101.842-101.848c5.857-5.859 15.356-5.857 21.214 0 5.857 5.857 5.858 15.354.001 21.212l35.596 35.588.002-.001c5.858-5.858 15.355-5.858 21.213 0 5.857 5.857 5.857 15.355 0 21.213l-101.849 101.852c-.028.027-.056.055-.083.082-10.744 10.7-24.834 16.05-38.928 16.05-14.126 0-28.254-5.377-39.01-16.131-21.507-21.513-21.506-56.511.002-78.017z" fill="#1e347b"/><g><path d="m143.523 63.218c40.765-40.766 94.965-63.217 152.617-63.218 57.65.001 111.851 22.452 152.616 63.218 40.767 40.767 63.218 94.967 63.218 152.618 0 57.649-22.451 111.85-63.217 152.615-40.766 40.766-94.967 63.217-152.617 63.217-57.651 0-111.852-22.451-152.617-63.217-40.766-40.766-63.215-94.965-63.216-152.615.001-57.651 22.45-111.853 63.216-152.618z" fill="#39659f"/><path d="m143.523 63.218c40.765-40.766 94.965-63.217 152.617-63.218h.001v431.668h-.001c-57.651 0-111.852-22.451-152.617-63.217-40.766-40.766-63.215-94.965-63.216-152.615.001-57.651 22.45-111.853 63.216-152.618z" fill="#4d88da"/><circle cx="296.14" cy="215.836" fill="#c1eaf8" r="135.5"/><path d="m296.14 80.336h.001v271h-.001c-74.715 0-135.5-60.785-135.5-135.5s60.785-135.5 135.5-135.5z" fill="#e4f4f9"/><path d="m221.876 194.513c1.765-5.431 6.459-9.388 12.11-10.209l33.652-4.888 15.052-30.498c2.526-5.12 7.741-8.361 13.451-8.361s10.925 3.241 13.451 8.361l15.052 30.498 33.652 4.888c5.65.821 10.346 4.778 12.11 10.208 1.765 5.431.294 11.392-3.794 15.377l-24.353 23.742 5.748 33.518c.965 5.627-1.348 11.314-5.968 14.671-4.62 3.355-10.743 3.799-15.797 1.141l-30.102-15.825-30.1 15.824c-2.195 1.154-4.591 1.724-6.98 1.724-.02 0-.041 0-.062 0-8.266-.022-14.959-6.729-14.959-15 0-1.151.131-2.273.377-3.352l5.609-32.701-24.355-23.741c-4.089-3.987-5.559-9.948-3.794-15.377z" fill="#e79d26"/></g><path d="m221.876 194.513c1.765-5.431 6.459-9.388 12.11-10.209l33.652-4.888 15.052-30.498c2.526-5.12 7.741-8.361 13.451-8.361v126.578l-30.101 15.825c-2.195 1.154-4.591 1.724-6.98 1.724-.02 0-.041 0-.062 0-8.266-.022-14.959-6.729-14.959-15 0-1.151.131-2.273.377-3.352l5.609-32.701-24.355-23.741c-4.089-3.987-5.559-9.948-3.794-15.377z" fill="#f2d231"/></g></svg>